<svg width="25" height="24" viewBox="0 0 25 24" fill="none" xmlns="http://www.w3.org/2000/svg">
<path d="M5.77429 21C7.70729 21 9.27429 19.433 9.27429 17.5C9.27429 15.567 7.70729 14 5.77429 14C3.8413 14 2.27429 15.567 2.27429 17.5C2.27429 19.433 3.8413 21 5.77429 21Z" stroke="#858585" stroke-width="2" stroke-linecap="round" stroke-linejoin="round"/>
<path d="M18.7743 21C20.7073 21 22.2743 19.433 22.2743 17.5C22.2743 15.567 20.7073 14 18.7743 14C16.8413 14 15.2743 15.567 15.2743 17.5C15.2743 19.433 16.8413 21 18.7743 21Z" stroke="#858585" stroke-width="2" stroke-linecap="round" stroke-linejoin="round"/>
<path d="M12.2743 17.5V14L9.27429 11L13.2743 8L15.2743 11H17.2743M15.2743 6C15.5395 6 15.7939 5.89464 15.9814 5.70711C16.1689 5.51957 16.2743 5.26522 16.2743 5C16.2743 4.73478 16.1689 4.48043 15.9814 4.29289C15.7939 4.10536 15.5395 4 15.2743 4C15.0091 4 14.7547 4.10536 14.5672 4.29289C14.3796 4.48043 14.2743 4.73478 14.2743 5C14.2743 5.26522 14.3796 5.51957 14.5672 5.70711C14.7547 5.89464 15.0091 6 15.2743 6Z" stroke="#858585" stroke-width="2" stroke-linecap="round" stroke-linejoin="round"/>
</svg>
