<svg width="25" height="24" viewBox="0 0 25 24" fill="none" xmlns="http://www.w3.org/2000/svg">
<path d="M5.77429 21C7.70729 21 9.27429 19.433 9.27429 17.5C9.27429 15.567 7.70729 14 5.77429 14C3.8413 14 2.27429 15.567 2.27429 17.5C2.27429 19.433 3.8413 21 5.77429 21Z" stroke="#858585" stroke-width="2" stroke-linecap="round" stroke-linejoin="round"/>
<path d="M18.7743 21C20.7073 21 22.2743 19.433 22.2743 17.5C22.2743 15.567 20.7073 14 18.7743 14C16.8413 14 15.2743 15.567 15.2743 17.5C15.2743 19.433 16.8413 21 18.7743 21Z" stroke="#858585" stroke-width="2" stroke-linecap="round" stroke-linejoin="round"/>
<path d="M12.2743 14H5.53342H18.9414L16.3445 8.00001L21.4819 7.47266" stroke="#858585" stroke-width="2" stroke-linecap="round" stroke-linejoin="round"/>
</svg>
