<svg width="21" height="20" viewBox="0 0 21 20" fill="none" xmlns="http://www.w3.org/2000/svg">
<g clip-path="url(#clip0_64_360)">
<path d="M16.941 5.83331H3.60763C2.68715 5.83331 1.94096 6.57951 1.94096 7.49998V15.8333C1.94096 16.7538 2.68715 17.5 3.60763 17.5H16.941C17.8614 17.5 18.6076 16.7538 18.6076 15.8333V7.49998C18.6076 6.57951 17.8614 5.83331 16.941 5.83331Z" stroke="#FDFDFD" stroke-width="2" stroke-linecap="round" stroke-linejoin="round"/>
<path d="M13.6076 17.5V4.16667C13.6076 3.72464 13.432 3.30072 13.1195 2.98816C12.8069 2.67559 12.383 2.5 11.941 2.5H8.60763C8.1656 2.5 7.74168 2.67559 7.42912 2.98816C7.11655 3.30072 6.94096 3.72464 6.94096 4.16667V17.5" stroke="#FDFDFD" stroke-width="2" stroke-linecap="round" stroke-linejoin="round"/>
</g>
<defs>
<clipPath id="clip0_64_360">
<rect width="20" height="20" fill="white" transform="translate(0.274292)"/>
</clipPath>
</defs>
</svg>
