<svg width="25" height="24" viewBox="0 0 25 24" fill="none" xmlns="http://www.w3.org/2000/svg">
<path d="M19.2743 17H21.2743L21.9143 14.46C22.1543 13.501 22.1543 12.498 21.9143 11.54L20.8443 7.27C20.6816 6.62145 20.3069 6.04584 19.7797 5.63457C19.2524 5.22331 18.6029 4.99996 17.9343 5H4.27429C3.74386 5 3.23515 5.21071 2.86008 5.58579C2.48501 5.96086 2.27429 6.46957 2.27429 7V17H4.27429" stroke="#858585" stroke-width="2" stroke-linecap="round" stroke-linejoin="round"/>
<path d="M14.2743 17H9.27429" stroke="#858585" stroke-width="2" stroke-linecap="round" stroke-linejoin="round"/>
<path d="M6.77429 20C8.155 20 9.27429 18.8807 9.27429 17.5C9.27429 16.1193 8.155 15 6.77429 15C5.39358 15 4.27429 16.1193 4.27429 17.5C4.27429 18.8807 5.39358 20 6.77429 20Z" stroke="#858585" stroke-width="2" stroke-linecap="round" stroke-linejoin="round"/>
<path d="M16.7743 20C18.155 20 19.2743 18.8807 19.2743 17.5C19.2743 16.1193 18.155 15 16.7743 15C15.3936 15 14.2743 16.1193 14.2743 17.5C14.2743 18.8807 15.3936 20 16.7743 20Z" stroke="#858585" stroke-width="2" stroke-linecap="round" stroke-linejoin="round"/>
</svg>
