<svg width="25" height="24" viewBox="0 0 25 24" fill="none" xmlns="http://www.w3.org/2000/svg">
<path d="M14.2743 16H9.27429M19.2743 16H22.2743V12.85C22.275 12.612 22.1908 12.3816 22.0368 12.2001C21.8828 12.0187 21.6692 11.8981 21.4343 11.86L16.2743 11L13.5743 7.39999C13.4811 7.27579 13.3604 7.17499 13.2215 7.10556C13.0826 7.03613 12.9295 6.99999 12.7743 6.99999H5.51429C5.14156 6.99739 4.77552 7.09901 4.45747 7.29338C4.13942 7.48774 3.88202 7.76712 3.71429 8.09999L2.91429 9.72999C2.49444 10.5646 2.27528 11.4857 2.27429 12.42V16H4.27429" stroke="#FDFDFD" stroke-width="2" stroke-linecap="round" stroke-linejoin="round"/>
<path d="M6.77429 19C8.155 19 9.27429 17.8807 9.27429 16.5C9.27429 15.1193 8.155 14 6.77429 14C5.39358 14 4.27429 15.1193 4.27429 16.5C4.27429 17.8807 5.39358 19 6.77429 19Z" stroke="#FDFDFD" stroke-width="2" stroke-linecap="round" stroke-linejoin="round"/>
<path d="M16.7743 19C18.155 19 19.2743 17.8807 19.2743 16.5C19.2743 15.1193 18.155 14 16.7743 14C15.3936 14 14.2743 15.1193 14.2743 16.5C14.2743 17.8807 15.3936 19 16.7743 19Z" stroke="#FDFDFD" stroke-width="2" stroke-linecap="round" stroke-linejoin="round"/>
</svg>
