<svg width="23" height="23" viewBox="0 0 23 23" fill="none" xmlns="http://www.w3.org/2000/svg">
<path d="M14.941 19.75V17.9167C14.941 16.9442 14.5546 16.0116 13.867 15.3239C13.1794 14.6363 12.2467 14.25 11.2743 14.25H5.77429C4.80183 14.25 3.8692 14.6363 3.18156 15.3239C2.49393 16.0116 2.10762 16.9442 2.10762 17.9167V19.75" stroke="#858585" stroke-width="2" stroke-linecap="round" stroke-linejoin="round"/>
<path d="M8.52429 10.5833C10.5493 10.5833 12.191 8.94171 12.191 6.91667C12.191 4.89162 10.5493 3.25 8.52429 3.25C6.49924 3.25 4.85762 4.89162 4.85762 6.91667C4.85762 8.94171 6.49924 10.5833 8.52429 10.5833Z" stroke="#858585" stroke-width="2" stroke-linecap="round" stroke-linejoin="round"/>
<path d="M20.441 19.75V17.9166C20.4404 17.1042 20.17 16.315 19.6722 15.6729C19.1745 15.0308 18.4776 14.5722 17.691 14.3691" stroke="#858585" stroke-width="2" stroke-linecap="round" stroke-linejoin="round"/>
<path d="M14.941 3.36914C15.7297 3.57108 16.4287 4.02978 16.928 4.67293C17.4272 5.31607 17.6982 6.10707 17.6982 6.92122C17.6982 7.73538 17.4272 8.52638 16.928 9.16952C16.4287 9.81266 15.7297 10.2714 14.941 10.4733" stroke="#858585" stroke-width="2" stroke-linecap="round" stroke-linejoin="round"/>
</svg>
