<svg width="21" height="14" viewBox="0 0 21 14" fill="none" xmlns="http://www.w3.org/2000/svg">
<path d="M17.6192 0.284729C19.01 0.284797 20.1378 1.41255 20.1378 2.80328V11.1968C20.1378 12.5876 19.01 13.7153 17.6192 13.7154H2.92979C1.53902 13.7154 0.41124 12.5876 0.41124 11.1968V2.80328C0.41124 1.41251 1.53902 0.284729 2.92979 0.284729H17.6192ZM0.831161 6.99957V11.1968C0.831161 11.4866 0.889017 11.7631 0.995224 12.0142C1.04838 12.1399 1.11404 12.259 1.18956 12.3707C1.49115 12.8169 1.95993 13.1406 2.50597 13.2525C2.57449 13.2665 2.64417 13.2775 2.71495 13.2847L2.92979 13.2955H7.12608V6.99957H0.831161ZM13.422 6.99957V13.2955H17.6192C18.7782 13.2954 19.7179 12.3558 19.7179 11.1968V6.99957H13.422ZM7.12608 0.704651V6.99957H13.422V0.704651H7.12608Z" fill="#858585"/>
</svg>
