<svg width="25" height="24" viewBox="0 0 25 24" fill="none" xmlns="http://www.w3.org/2000/svg">
<path d="M16.7743 9.40002L7.77429 4.21002" stroke="#858585" stroke-width="2" stroke-linecap="round" stroke-linejoin="round"/>
<path d="M21.2743 16V8.00002C21.2739 7.6493 21.1813 7.30483 21.0058 7.00119C20.8303 6.69754 20.578 6.44539 20.2743 6.27002L13.2743 2.27002C12.9703 2.09449 12.6254 2.00208 12.2743 2.00208C11.9232 2.00208 11.5783 2.09449 11.2743 2.27002L4.27429 6.27002C3.97055 6.44539 3.71827 6.69754 3.54275 7.00119C3.36723 7.30483 3.27465 7.6493 3.27429 8.00002V16C3.27465 16.3508 3.36723 16.6952 3.54275 16.9989C3.71827 17.3025 3.97055 17.5547 4.27429 17.73L11.2743 21.73C11.5783 21.9056 11.9232 21.998 12.2743 21.998C12.6254 21.998 12.9703 21.9056 13.2743 21.73L20.2743 17.73C20.578 17.5547 20.8303 17.3025 21.0058 16.9989C21.1813 16.6952 21.2739 16.3508 21.2743 16Z" stroke="#858585" stroke-width="2" stroke-linecap="round" stroke-linejoin="round"/>
<path d="M3.56429 7L12.2743 12L20.9843 7" stroke="#858585" stroke-width="2" stroke-linecap="round" stroke-linejoin="round"/>
<path d="M12.2743 22V12" stroke="#858585" stroke-width="2" stroke-linecap="round" stroke-linejoin="round"/>
</svg>
