<svg width="23" height="23" viewBox="0 0 23 23" fill="none" xmlns="http://www.w3.org/2000/svg">
<path d="M16.7743 7.83331C18.2931 7.83331 19.5243 6.6021 19.5243 5.08331C19.5243 3.56453 18.2931 2.33331 16.7743 2.33331C15.2555 2.33331 14.0243 3.56453 14.0243 5.08331C14.0243 6.6021 15.2555 7.83331 16.7743 7.83331Z" stroke="#858585" stroke-width="2" stroke-linecap="round" stroke-linejoin="round"/>
<path d="M5.77429 14.25C7.29308 14.25 8.52429 13.0188 8.52429 11.5C8.52429 9.98122 7.29308 8.75 5.77429 8.75C4.25551 8.75 3.02429 9.98122 3.02429 11.5C3.02429 13.0188 4.25551 14.25 5.77429 14.25Z" stroke="#858585" stroke-width="2" stroke-linecap="round" stroke-linejoin="round"/>
<path d="M16.7743 20.6667C18.2931 20.6667 19.5243 19.4355 19.5243 17.9167C19.5243 16.3979 18.2931 15.1667 16.7743 15.1667C15.2555 15.1667 14.0243 16.3979 14.0243 17.9167C14.0243 19.4355 15.2555 20.6667 16.7743 20.6667Z" stroke="#858585" stroke-width="2" stroke-linecap="round" stroke-linejoin="round"/>
<path d="M8.14846 12.8842L14.4093 16.5325" stroke="#858585" stroke-width="2" stroke-linecap="round" stroke-linejoin="round"/>
<path d="M14.4001 6.46753L8.14846 10.1159" stroke="#858585" stroke-width="2" stroke-linecap="round" stroke-linejoin="round"/>
</svg>
