<svg width="23" height="23" viewBox="0 0 23 23" fill="none" xmlns="http://www.w3.org/2000/svg">
<path d="M3.94095 20.6666H18.6076C19.0938 20.6666 19.5602 20.4735 19.904 20.1297C20.2478 19.7859 20.441 19.3195 20.441 18.8333V4.16665C20.441 3.68042 20.2478 3.2141 19.904 2.87028C19.5602 2.52647 19.0938 2.33331 18.6076 2.33331H7.60762C7.12139 2.33331 6.65507 2.52647 6.31126 2.87028C5.96744 3.2141 5.77429 3.68042 5.77429 4.16665V18.8333C5.77429 19.3195 5.58113 19.7859 5.23732 20.1297C4.8935 20.4735 4.42718 20.6666 3.94095 20.6666ZM3.94095 20.6666C3.45472 20.6666 2.98841 20.4735 2.64459 20.1297C2.30077 19.7859 2.10762 19.3195 2.10762 18.8333V10.5833C2.10762 9.57498 2.93262 8.74998 3.94095 8.74998H5.77429" stroke="#858585" stroke-width="2" stroke-linecap="round" stroke-linejoin="round"/>
<path d="M16.7743 13.3333H9.44096" stroke="#858585" stroke-width="2" stroke-linecap="round" stroke-linejoin="round"/>
<path d="M14.0243 17H9.44096" stroke="#858585" stroke-width="2" stroke-linecap="round" stroke-linejoin="round"/>
<path d="M9.44096 6H16.7743V9.66667H9.44096V6Z" stroke="#858585" stroke-width="2" stroke-linecap="round" stroke-linejoin="round"/>
</svg>
